<?xml version="1.0" standalone="no"?>
<!DOCTYPE svg PUBLIC "-//W3C//DTD SVG 20010904//EN"
 "http://www.w3.org/TR/2001/REC-SVG-20010904/DTD/svg10.dtd">
<svg version="1.0" xmlns="http://www.w3.org/2000/svg"
 width="512.000000pt" height="512.000000pt" viewBox="0 0 512.000000 512.000000"
 preserveAspectRatio="xMidYMid meet">

<g transform="translate(0.000000,512.000000) scale(0.100000,-0.100000)"
fill="#000000" stroke="none">
<path d="M2515 5096 c-101 -45 -2464 -1282 -2482 -1298 -30 -28 -37 -69 -19
-111 27 -66 36 -67 404 -67 l330 0 4 -97 c3 -71 10 -111 25 -145 25 -56 93
-126 146 -151 l37 -18 0 -872 0 -872 -46 -24 c-104 -56 -164 -165 -164 -300
l0 -78 -91 -6 c-118 -9 -193 -41 -254 -109 -54 -60 -75 -119 -82 -230 l-6 -87
-41 -6 c-105 -17 -198 -87 -245 -185 -25 -52 -26 -64 -29 -247 l-4 -193 2562
0 2562 0 -4 193 c-3 170 -6 197 -25 239 -45 100 -143 175 -249 193 l-41 6 -5
94 c-6 116 -35 183 -109 249 -60 54 -117 75 -230 83 l-87 6 -4 96 c-3 74 -9
106 -27 139 -31 60 -83 115 -136 143 l-45 24 0 870 0 870 46 24 c106 57 164
165 164 306 l0 85 340 0 340 0 30 28 c40 35 48 85 22 127 -15 25 -244 147
-1262 678 -684 357 -1256 650 -1270 653 -14 2 -38 -2 -55 -10z m1050 -738
l1002 -523 -1003 -3 c-552 -1 -1457 -1 -2010 0 l-1007 3 1004 522 c552 288
1006 523 1007 523 2 0 455 -235 1007 -522z m-1965 -805 c0 -143 -21 -153 -318
-153 -247 0 -279 6 -306 59 -10 18 -16 56 -16 96 l0 65 320 0 320 0 0 -67z
m420 -15 c1 -140 54 -242 155 -299 l55 -31 0 -871 0 -872 -45 -24 c-104 -55
-157 -148 -163 -288 l-4 -93 -103 0 -103 0 -4 97 c-3 76 -9 108 -27 141 -31
60 -83 115 -136 143 l-45 24 0 870 0 870 46 24 c106 57 164 165 164 306 l0 85
105 0 105 0 0 -82z m850 7 c0 -68 -2 -77 -29 -107 l-29 -33 -234 -3 c-153 -2
-246 0 -271 8 -55 16 -77 57 -77 143 l0 67 320 0 320 0 0 -75z m440 -3 c0
-144 45 -235 150 -300 l59 -37 1 -870 0 -870 -46 -24 c-104 -56 -164 -165
-164 -301 l0 -80 -114 0 -114 0 -4 97 c-3 81 -9 107 -30 148 -30 57 -97 124
-145 144 l-33 13 0 872 0 871 45 24 c53 28 105 83 137 143 17 34 23 64 26 146
l4 102 114 0 114 0 0 -78z m850 11 c0 -143 -21 -153 -318 -153 -247 0 -279 6
-306 59 -10 18 -16 56 -16 96 l0 65 320 0 320 0 0 -67z m-2589 -2321 c26 -29
29 -39 29 -102 l0 -70 -321 0 -321 0 4 74 c3 77 19 108 63 127 11 4 132 7 268
6 l249 -2 29 -33z m1265 4 c32 -32 34 -38 34 -105 l0 -71 -320 0 -320 0 0 63
c0 69 24 121 63 137 12 5 132 9 266 9 l243 1 34 -34z m1295 -4 c26 -29 29 -39
29 -102 l0 -70 -321 0 -321 0 4 74 c3 77 19 108 63 127 11 4 132 7 268 6 l249
-2 29 -33z"/>
<path d="M2547 4593 c-4 -3 -7 -14 -7 -23 0 -12 -11 -19 -39 -24 -103 -16
-163 -138 -111 -224 19 -31 104 -82 138 -82 8 0 12 -23 12 -81 0 -79 0 -80
-22 -74 -13 4 -44 19 -69 35 l-46 27 -28 -34 c-26 -33 -26 -35 -8 -49 32 -24
100 -55 137 -61 32 -5 36 -9 36 -34 0 -24 4 -29 25 -29 20 0 25 5 25 24 0 25
4 27 64 41 72 16 116 73 116 150 0 80 -38 121 -143 155 l-38 12 3 71 c3 70 4
72 28 69 14 -2 39 -12 57 -22 l31 -18 26 36 26 36 -28 18 c-15 9 -52 24 -82
31 -43 11 -56 19 -58 36 -3 20 -31 29 -45 14z m-7 -188 c0 -70 -7 -78 -48 -49
-45 31 -18 107 41 113 4 1 7 -28 7 -64z m118 -221 c12 -14 22 -32 22 -40 0
-22 -46 -64 -70 -64 -18 0 -20 6 -20 71 0 68 1 70 23 64 12 -4 32 -18 45 -31z"/>
</g>
</svg>
