<?xml version="1.0" standalone="no"?>
<!DOCTYPE svg PUBLIC "-//W3C//DTD SVG 20010904//EN"
 "http://www.w3.org/TR/2001/REC-SVG-20010904/DTD/svg10.dtd">
<svg version="1.0" xmlns="http://www.w3.org/2000/svg"
 width="491.000000pt" height="89.000000pt" viewBox="0 0 491.000000 89.000000"
 preserveAspectRatio="xMidYMid meet">

<g transform="translate(0.000000,89.000000) scale(0.100000,-0.100000)"
fill="#000000" stroke="none">
<path d="M0 445 l0 -445 2455 0 2455 0 0 445 0 445 -2455 0 -2455 0 0 -445z
m3940 215 c0 -12 9 -24 23 -29 29 -11 51 -37 39 -45 -5 -3 -24 1 -41 10 -29
14 -34 14 -56 0 -16 -10 -25 -26 -25 -42 0 -20 9 -28 48 -45 65 -28 92 -56 92
-94 0 -34 -27 -69 -60 -80 -11 -3 -20 -15 -20 -26 0 -10 -4 -19 -10 -19 -5 0
-10 8 -10 18 0 11 -12 22 -34 30 -43 16 -68 43 -56 62 8 12 13 11 32 -7 32
-29 61 -36 92 -22 19 9 26 20 26 39 0 31 -15 46 -74 75 -22 11 -48 32 -56 48
-13 24 -13 30 0 55 9 15 28 33 43 40 16 8 27 21 27 33 0 10 5 19 10 19 6 0 10
-9 10 -20z m-2192 -170 l3 -152 -28 5 c-15 3 -36 1 -46 -5 -11 -5 -35 -7 -54
-3 -37 7 -73 52 -73 93 0 37 27 78 59 92 30 12 45 11 84 -5 15 -6 17 0 17 57
0 36 3 68 7 72 22 21 28 -11 31 -154z m-540 38 c20 -54 39 -98 42 -98 3 0 23
45 44 100 28 74 42 100 55 100 15 0 20 -18 34 -124 21 -151 21 -166 3 -166
-15 0 -20 19 -31 105 -14 118 -14 118 -55 9 -21 -56 -43 -99 -50 -99 -7 0 -29
44 -51 100 -40 107 -41 107 -54 0 -11 -93 -17 -115 -31 -115 -18 0 -18 18 2
168 15 113 19 123 37 120 15 -2 28 -26 55 -100z m1332 87 c0 -12 -13 -15 -60
-15 l-60 0 0 -50 0 -50 55 0 c42 0 55 -3 55 -15 0 -12 -13 -15 -55 -15 l-55 0
0 -65 c0 -58 -2 -65 -20 -65 -19 0 -20 7 -20 145 l0 145 80 0 c64 0 80 -3 80
-15z m-1040 -39 c0 -8 -5 -18 -11 -22 -14 -8 -33 11 -25 25 10 16 36 13 36 -3z
m1125 -6 c0 -22 -29 -18 -33 3 -3 14 1 18 15 15 10 -2 18 -10 18 -18z m-677
-56 c12 -8 22 -10 22 -5 0 6 7 11 15 11 12 0 15 -17 15 -90 0 -73 -3 -90 -15
-90 -8 0 -15 5 -15 11 0 5 -10 3 -22 -5 -34 -24 -74 -20 -110 13 -27 24 -33
36 -33 71 0 75 85 125 143 84z m217 3 c11 -9 15 -19 10 -26 -5 -9 -10 -10 -18
-2 -19 19 -57 13 -57 -8 0 -13 13 -24 39 -34 37 -15 51 -32 51 -63 0 -24 -38
-54 -69 -54 -35 0 -77 31 -67 49 6 9 12 8 26 -4 25 -23 64 -16 68 12 3 17 -4
26 -25 34 -35 13 -63 38 -63 56 0 21 38 53 63 53 13 0 31 -6 42 -13z m663 -3
c20 -13 22 -24 22 -95 0 -64 -3 -79 -15 -79 -12 0 -15 13 -15 61 0 71 -12 99
-43 99 -37 0 -47 -19 -47 -92 0 -61 -2 -68 -20 -68 -19 0 -20 7 -20 91 l0 91
24 -4 c14 -3 31 -1 38 3 20 13 51 10 76 -7z m220 0 c12 -8 22 -10 22 -5 0 6 7
11 15 11 12 0 15 -17 15 -90 0 -73 -3 -90 -15 -90 -8 0 -15 5 -15 11 0 5 -10
3 -22 -5 -34 -24 -74 -20 -110 13 -27 24 -33 36 -33 71 0 75 85 125 143 84z
m256 -5 c24 -19 26 -26 26 -95 0 -56 -3 -74 -14 -74 -10 0 -15 19 -18 71 -4
71 -13 89 -50 89 -34 0 -48 -28 -48 -96 0 -50 -3 -64 -15 -64 -12 0 -15 17
-15 91 0 85 1 91 19 86 10 -2 25 -1 32 4 23 15 55 10 83 -12z m221 11 c37 -14
21 -31 -23 -24 -50 8 -85 -19 -85 -66 0 -44 34 -72 82 -68 47 4 52 -14 8 -26
-87 -22 -156 65 -113 143 25 45 78 61 131 41z m214 -17 c17 -16 31 -39 33 -53
3 -25 2 -25 -74 -28 -84 -3 -99 -16 -56 -46 28 -20 58 -20 86 0 29 20 49 8 26
-17 -40 -44 -132 -31 -159 22 -19 37 -19 64 2 99 32 56 96 65 142 23z m-2239
-73 c0 -83 -1 -90 -20 -90 -19 0 -20 7 -20 90 0 83 1 90 20 90 19 0 20 -7 20
-90z m1130 0 c0 -83 -1 -90 -20 -90 -19 0 -20 7 -20 90 0 83 1 90 20 90 19 0
20 -7 20 -90z m-340 -81 c0 -25 -33 -22 -38 4 -2 12 3 17 17 17 15 0 21 -6 21
-21z"/>
<path d="M1610 480 c-28 -28 -27 -84 2 -104 12 -9 32 -16 44 -16 53 0 78 87
35 122 -30 23 -56 23 -81 -2z"/>
<path d="M1860 480 c-41 -41 -12 -120 45 -120 40 0 68 36 62 77 -10 60 -67 83
-107 43z"/>
<path d="M2960 480 c-41 -41 -12 -120 45 -120 40 0 68 36 62 77 -10 60 -67 83
-107 43z"/>
<path d="M3637 482 c-10 -10 -17 -22 -17 -25 0 -4 27 -7 60 -7 64 0 74 9 38
34 -30 21 -61 20 -81 -2z"/>
</g>
</svg>
